<svg xmlns="http://www.w3.org/2000/svg" width="86" height="28" fill="#232536" xmlns:v="https://vecta.io/nano"><path d="M32.92 22.565h.798v2.016h1.89v-2.016h.798v4.802h-.798v-2.03h-1.89v2.03h-.798c0 .014 0-4.802 0-4.802zm4.606 2.45v-.056c0-1.428.882-2.45 2.142-2.45 1.246 0 2.114 1.022 2.114 2.45v.056c0 1.428-.882 2.45-2.142 2.45-1.246 0-2.114-1.022-2.114-2.45zm3.416-.014v-.042c0-1.036-.546-1.736-1.302-1.736s-1.302.672-1.302 1.708v.042c0 1.036.546 1.736 1.302 1.736.784 0 1.302-.672 1.302-1.708zm2.044-2.436h.84l1.246 2.198 1.218-2.198h.84v4.802h-.798v-3.402l-1.288 2.226h-.014l-1.26-2.198v3.374H43v-4.802h-.014zm5.824 0h3.024v.714h-2.24v1.302h1.974v.714h-1.974v1.344h2.282v.714h-3.052v-4.788h-.014zm4.13 4.186l.49-.588c.364.322.756.574 1.26.574.462 0 .756-.238.756-.616 0-.308-.168-.504-.91-.77-.91-.35-1.386-.672-1.386-1.442v-.014c0-.798.63-1.344 1.526-1.344a2.22 2.22 0 0 1 1.512.574l-.448.616c-.322-.266-.686-.448-1.078-.448-.434 0-.686.238-.686.546 0 .35.182.504.994.84.896.35 1.302.714 1.302 1.4v.014c0 .84-.658 1.386-1.554 1.386a2.9 2.9 0 0 1-1.778-.728zm5.362-3.444h-1.26v-.742h3.318v.728H59.1v4.046h-.798v-4.032zm2.562 1.708v-.056c0-1.428.882-2.45 2.142-2.45 1.246 0 2.114 1.022 2.114 2.45v.056c0 1.428-.882 2.45-2.142 2.45-1.246 0-2.114-1.022-2.114-2.45zm3.444-.014v-.042c0-1.036-.546-1.736-1.302-1.736s-1.302.672-1.302 1.708v.042c0 1.036.546 1.736 1.302 1.736.742 0 1.302-.672 1.302-1.708zm1.806-2.436h1.736c.546 0 .994.168 1.288.448.238.238.406.616.406 1.064v.014a1.39 1.39 0 0 1-.994 1.4l1.134 1.848h-.91l-1.022-1.708h-.042-.77v1.694h-.798v-4.76h-.028 0zm1.666 2.408c.616 0 .952-.322.952-.84v-.014c0-.546-.35-.812-.952-.812h-.882v1.666h.882 0zm3.178-2.408h3.01v.714h-2.24v1.302h1.974v.714h-1.974v1.344h2.282v.714h-3.052v-4.788zm10.43-13.174v.98h1.484l-2.198 5.684-2.324-5.684h1.218v-.98h-4.984v.98h.84l3.808 9.324c-.504 1.344-.798 1.848-1.4 2.646a7 7 0 0 1-1.792 1.652l1.484 1.302.406-.532c.756-1.036 1.582-2.646 2.184-4.2l3.934-10.178H85v-.98h-3.598l-.014-.014zM69.572 20.353c-3.15 0-5.236-2.24-5.236-5.558 0-3.402 2.142-5.656 5.376-5.656 2.73 0 4.536 1.694 4.536 4.27v.896h-7.014c0 2.912 1.33 4.718 3.416 4.718.882 0 1.358-.21 3.262-1.204l.434.98c-2.31 1.288-3.136 1.554-4.774 1.554zm1.764-7.798c0-1.4-.672-2.408-1.652-2.408-1.246 0-2.24 1.176-2.45 2.954h4.088v-.546h.014zm-35.504 6.51L30.358 4.057h-1.344l-5.698 15.008h-.91v.98h3.374v-.98h-1.022l1.428-3.808h5.348l1.358 3.808h-.658v.98h4.536v-.98h-.938zm-9.114-5.236l2.24-5.866 2.1 5.866h-4.34zm15.526-.239c-2.478-.98-2.87-1.26-2.87-2.142 0-.798.672-1.33 1.694-1.33 1.176 0 2.464.672 2.478 1.554l-.014.364h1.162l.168-2.646H43.7l-.014.504c-.672-.574-1.484-.798-2.632-.798-2.254 0-3.752 1.288-3.752 3.234 0 1.652.854 2.59 3.122 3.458 2.296.882 2.898 1.344 2.898 2.282 0 .756-.714 1.246-1.834 1.246-1.47 0-2.772-.854-2.772-1.792v-.462h-1.288v2.954h1.134v-.63c.714.63 1.666.938 3.038.938 2.366 0 3.724-1.204 3.724-3.262.014-1.666-.77-2.562-3.08-3.472zm14.518-1.525c0-1.89-1.078-2.926-3.052-2.926-1.484 0-2.296.434-3.822 1.974V2.46h-.728l-3.08 1.022v.952h1.064v14.63h-1.078v.98h4.886v-.98h-1.064v-6.72c1.554-1.47 1.932-1.694 2.856-1.694.952 0 1.288.448 1.288 1.848v6.566h-1.078v.98h4.872v-.98h-1.064v-7zm5.894 7V2.447h-.658l-3.052 1.008v.966h.952v14.644h-1.05v.98h4.858v-.98h-1.05zM20.81 9.993L10.912.011c-.014-.014-.014-.014-.042 0L1 9.993v.014 10.024l19.782.014.028-10.052zm-2.814 7c0 .182-.042.238-.224.238H3.982c-.21 0-.21-.168-.21-.224v-5.558c0-.28 0-.308.182-.49l6.664-6.72c.098-.126.182-.168.238-.168.084 0 .14.056.224.14l6.734 6.804a.32.32 0 0 1 .126.308v5.656h.056v.014zm66.108 2.883c-.182.182-.406.266-.658.266-.266 0-.49-.084-.672-.266s-.266-.406-.266-.672c0-.28.098-.504.28-.686.182-.168.406-.266.658-.266a.92.92 0 0 1 .672.28.92.92 0 0 1 .28.672.99.99 0 0 1-.294.672zm-1.232-1.218c-.14.168-.224.322-.224.546a.75.75 0 0 0 .77.77c.21 0 .392-.084.546-.224.14-.168.224-.35.224-.546 0-.21-.084-.392-.224-.546-.168-.168-.35-.238-.546-.238-.196.014-.378.098-.546.238zm.14 1.078V18.7h.28.224c.084 0 .14.014.21.056.098.042.14.14.14.238 0 .084-.014.14-.084.182-.042.042-.098.056-.182.056a.47.47 0 0 1 .14.056c.056.042.098.126.098.224v.098.042.042.014h-.266c0-.042-.014-.084-.014-.14s0-.098-.014-.126c-.014-.042-.042-.056-.084-.084-.014 0-.056-.014-.098-.014h-.056-.056v.364h-.238v.028zm.518-.826c-.042-.014-.084-.014-.168-.014h-.056v.308h.098c.056 0 .126-.014.14-.042.042-.014.056-.056.056-.126.014-.07-.028-.112-.07-.126z"/></svg>