<svg xmlns="http://www.w3.org/2000/svg" width="84" height="29" fill="none" xmlns:v="https://vecta.io/nano"><g clip-path="url(#A)" fill="#232536"><path d="M7.674 21.431c0 .551-.132.639-.639.639H4.436c-.529 0-.639-.088-.639-.639V9.845H1.639C1.11 9.845 1 9.757 1 9.207V7.643c0-.551.132-.639.639-.639h2.158V5.749C3.797 2.401 5.031 0 8.687 0c1.366 0 3.722.485 3.722 1.101 0 .088-.022.176-.066.264l-.551 2.136c-.022.132-.154.308-.264.308-.33 0-.969-.529-2.136-.529-1.652 0-1.718 1.013-1.718 2.467v1.255h3.48c.264 0 .529.066.529.308 0 .132-.022.176-.066.308l-.418 1.806c-.088.396-.264.418-.573.418H7.674v11.585zm14.492 1.035c-.132.022-.264.132-.396.132-.264 0-.727-1.057-.881-1.828-.617.617-1.674 1.828-3.965 1.828-2.797 0-4.581-1.828-4.581-4.691 0-5.154 5.55-5.154 7.951-5.154v-.947c0-1.366-.242-2.247-2.158-2.247-1.718 0-3.392.925-3.788.925-.154 0-.264-.176-.308-.308l-.617-1.85a.78.78 0 0 1-.088-.374c0-.705 3.018-1.432 5.374-1.432 3.81 0 5.242 1.74 5.242 4.912v5.881c0 2.951.793 3.348.793 3.964 0 .132-.132.22-.264.264l-2.313.925zm-1.872-7.224c-.771 0-4.295-.242-4.295 2.445 0 1.189.859 2.07 2.004 2.07 1.123 0 1.916-.793 2.291-1.167v-3.348zm16.805 5.946c.022.154.066.154.066.242 0 .573-2.225 1.167-4.295 1.167-3.942 0-3.942-3.084-3.942-5.881V9.845H26.77c-.375 0-.419-.088-.419-.418V7.444c0-.33.066-.418.419-.418h2.158V3.172c0-.396.066-.485.485-.551l2.687-.374c.088 0 .22-.022.396-.022.264 0 .308.154.308.529v4.273h3.48c.264 0 .529 0 .529.33 0 .066 0 .132-.022.242l-.396 1.806c-.088.418-.176.463-.551.463h-3.017v7.378c0 .969 0 1.85 1.035 1.85 1.211 0 1.982-.573 2.401-.573.132 0 .22.066.242.176l.595 2.489zm6.344-13.347c.617-.463 1.718-1.344 3.392-1.344 4.141 0 5.33 3.656 5.33 7.621 0 5.176-2.224 8.48-6.321 8.48-1.74 0-2.401-.859-2.907-1.343-.132.33-.419 1.343-.881 1.343a1.19 1.19 0 0 1-.419-.066l-2.445-.617c-.154-.022-.308-.132-.308-.242 0-.264.33-.551.551-1.586.132-.617.132-1.255.132-1.894V1.167c0-.463.22-.463.573-.551l2.555-.529c.088 0 .374-.088.418-.088.242 0 .308.132.308.639V7.84h.022zm0 11.057c.176.154.705.639 1.52.639 2.775 0 3.326-2.841 3.326-5.22 0-2.445-.419-4.779-2.753-4.779-1.035 0-1.718.705-2.114 1.035v8.326h.022zm18.06 3.7c-4.119 0-6.608-3.15-6.608-8.061s2.511-8.039 6.608-8.039 6.608 3.15 6.608 8.039c0 4.912-2.489 8.061-6.608 8.061zm2.489-8.061c0-2.841-.396-5-2.511-5s-2.511 2.158-2.511 5 .375 5 2.511 5c2.159 0 2.511-2.114 2.511-5zm15.132-7.158c.088-.33.242-.639.529-.639l.551.022 2.136.264c.463.066.661.088.661.308 0 .132-.088.308-.154.551L79.85 18.898l-2.048 6.762c-.881 2.224-2.775 2.863-4.493 2.863-1.674 0-4.141-.815-4.141-1.41 0-.132.066-.242.132-.374l.925-1.982c.066-.154.176-.22.264-.22.308 0 1.255.771 2.599.771 1.586 0 2.048-.947 2.445-2.247l.308-1.013h-1.278c-.396 0-.463-.132-.551-.396L69.344 7.863c-.022-.066-.132-.308-.154-.529 0-.242.22-.264.661-.33l2.533-.264.485-.022c.242 0 .33.308.419.617l1.982 7.378c.375 1.366.969 4.229 1.167 5.286h.066c.154-1.189.881-4.735 1.013-5.286l1.608-7.334zm2.533 12.994c.529 0 .969.441.969.991s-.419.991-.969.991c-.529 0-.969-.441-.969-.991s.419-.991.969-.991zm0 .154c-.441 0-.793.374-.793.837s.352.837.793.837.793-.374.793-.837-.352-.837-.793-.837zm-.198 1.388h-.176v-1.101c.088-.022.176-.022.308-.022a.54.54 0 0 1 .33.088c.066.044.11.132.11.22 0 .154-.088.22-.22.264.088.022.154.11.176.264.022.176.044.242.066.264h-.176c-.022-.044-.044-.132-.066-.286-.022-.132-.088-.198-.242-.198h-.132v.507h.022zm0-.595h.132c.154 0 .264-.044.264-.198 0-.088-.066-.198-.264-.198h-.132v.396z"/></g><defs><clipPath id="A"><path fill="#fff" transform="translate(1)" d="M0 0h82v28.545H0z"/></clipPath></defs></svg>