<svg xmlns="http://www.w3.org/2000/svg" xmlns:xlink="http://www.w3.org/1999/xlink" width="78" height="25" fill="none" xmlns:v="https://vecta.io/nano"><g clip-path="url(#A)" fill="#232536"><path d="M19.73 8.845h-8.891v2.638h6.306c-.312 3.693-3.389 5.278-6.296 5.278a6.93 6.93 0 0 1-4.953-2.052 6.93 6.93 0 0 1-2.007-4.972c0-3.994 3.092-7.069 6.969-7.069 2.991 0 4.754 1.907 4.754 1.907l1.846-1.913S15.086.022 10.761.022C5.254.022.994 4.67.994 9.69c0 4.919 4.007 9.716 9.907 9.716 5.189 0 8.988-3.555 8.988-8.811 0-1.109-.161-1.75-.161-1.75h.003z"/><use xlink:href="#B"/><path d="M40.635 6.934c-3.649 0-6.264 2.853-6.264 6.178 0 3.376 2.535 6.281 6.306 6.281 3.413 0 6.209-2.608 6.209-6.209 0-4.119-3.252-6.251-6.251-6.251v.001zm.035 2.447c1.794 0 3.494 1.451 3.494 3.788 0 2.287-1.693 3.779-3.502 3.779-1.988 0-3.551-1.592-3.551-3.798 0-2.159 1.548-3.769 3.565-3.769h-.006zm13.325-2.44c-3.349 0-5.981 2.933-5.981 6.225 0 3.75 3.051 6.236 5.923 6.236 1.775 0 2.72-.705 3.409-1.514v1.229c0 2.15-1.305 3.437-3.275 3.437-1.903 0-2.858-1.415-3.196-2.218l-2.395.994c.849 1.797 2.56 3.67 5.61 3.67 3.338 0 5.867-2.097 5.867-6.496V7.315h-2.602V8.37c-.802-.866-1.902-1.43-3.359-1.43h-.001zm.242 2.443c1.642 0 3.328 1.402 3.328 3.796 0 2.434-1.683 3.774-3.364 3.774-1.785 0-3.446-1.449-3.446-3.752 0-2.392 1.726-3.819 3.483-3.819v.001zm17.35-2.458c-3.159 0-5.811 2.514-5.811 6.221 0 3.924 2.956 6.251 6.107 6.251 2.636 0 4.261-1.442 5.22-2.734l-2.154-1.433c-.559.866-1.493 1.715-3.052 1.715-1.751 0-2.557-.959-3.056-1.889l8.353-3.466-.426-1.015c-.807-1.988-2.689-3.65-5.181-3.65h-.001zm.109 2.396c1.138 0 1.957.605 2.305 1.331l-5.579 2.331c-.241-1.805 1.47-3.662 3.267-3.662h.007zm-9.909 9.707h2.744V.667h-2.744v18.362z"/></g><defs><clipPath id="A"><path fill="#fff" d="M0 0h78v25H0z"/></clipPath><path id="B" d="M27.014 6.934c-3.649 0-6.264 2.853-6.264 6.178 0 3.376 2.535 6.281 6.306 6.281 3.413 0 6.209-2.608 6.209-6.209 0-4.119-3.252-6.251-6.251-6.251v.001zm.035 2.447c1.794 0 3.494 1.451 3.494 3.788 0 2.287-1.693 3.779-3.502 3.779-1.988 0-3.551-1.592-3.551-3.798 0-2.159 1.548-3.769 3.565-3.769h-.006z"/></defs></svg>