<svg xmlns="http://www.w3.org/2000/svg" width="84" height="39" fill="none" xmlns:v="https://vecta.io/nano"><g clip-path="url(#A)"><path d="M20.786 11.01h.205l.189-.081 20.825-8.92 20.824 8.92.189.081h.205 12.231v2.708 1h1 5.626V37.64H1.921V14.718h5.63 1v-1-2.708h12.236z" stroke="#232536" stroke-width="2"/><g fill="#232536"><path d="M61.597 16.638l-.001 4.029 2.607.005.543-4.032-3.149-.001h0zm14.094 3.491c.168 0 .32-.013.32-.218 0-.161-.15-.191-.288-.191h-.272v.409h.239 0zm-.239.739h-.199v-1.316h.502c.31 0 .464.115.464.375 0 .236-.146.338-.34.363l.374.579h-.223l-.347-.571h-.23v.571h0zm.242.295a.92.92 0 0 0 .924-.955.92.92 0 0 0-.924-.948c-.524 0-.931.407-.931.948 0 .551.407.955.931.955zm-1.161-.955c0-.656.532-1.139 1.161-1.139a1.14 1.14 0 0 1 1.155 1.139c0 .661-.533 1.146-1.155 1.146-.629 0-1.161-.486-1.161-1.146zm-60.507 10.16v-13.73h-3.755v17h9.566v-3.27h-5.81zm37.803 3.27h8.938v-3.274h-5.165V28.23h5.165v-3.152h-5.165v-2.145h5.165v-3.288h-8.938v.016 13.977zm-23.41-10.705h-3.303v7.417h3.303v-7.417zm3.762 8.918a1.79 1.79 0 0 1-1.787 1.787H23.14a1.79 1.79 0 0 1-1.786-1.787V21.433c0-.987.8-1.787 1.786-1.787h7.254c.987 0 1.787.8 1.787 1.787v10.418zm13.738-12.205v10.722h-2.267V19.646h-3.303v10.722h-2.267V19.646H34.32V31.85a1.79 1.79 0 0 0 1.787 1.788h4.447c.749 0 1.447-.518 1.447-1.267 0 .749.697 1.267 1.447 1.267h4.448a1.79 1.79 0 0 0 1.786-1.788V19.646H45.92h0zm28.034 8.704l.001.001-.023-.048-.045-.089-.023-.046c-.595-1.193-1.928-2.19-4.073-3.048l-.076-.029c-.425-.167-1.717-.672-1.861-1.494-.039-.23.054-.591.311-.811.27-.275.685-.417 1.231-.417.875 0 1.869.358 2.385.571l2.046.857.094.039v-3.054l-.031-.02c-.021-.014-2.073-1.307-4.145-1.604l-.701-.03c-1.908 0-3.353.693-4.295 2.06-.791 1.123-.878 2.901-.206 4.228.864 1.5 2.25 2.126 3.59 2.732l1.66.826.005.004c.605.364.914.919.786 1.413-.132.512-.718.856-1.458.856-.101 0-.204-.006-.304-.02l-.036-.005c-1.424-.198-4.31-1.273-4.338-1.284l-.092-.034v3.349l.047.016c.027.009 2.821.934 5.301.934h.001c1.353 0 2.375-.273 3.036-.809.016-.011 1.532-1.23 1.599-3.303.018-.573-.112-1.16-.387-1.742"/></g></g><defs><clipPath id="A"><path fill="#fff" d="M0 0h84v39H0z"/></clipPath></defs></svg>