<svg width="60" height="15" viewBox="0 0 60 15" fill="none" xmlns="http://www.w3.org/2000/svg">
<path d="M59.2592 0.115356V2.51704H51.6764V6.4101H58.1648V8.73431H51.6764V12.6274H59.2592V14.9903H49.4006V0.115356H59.2592ZM39.668 0.115356C43.7354 0.115356 46.9408 3.4661 46.9408 7.55284C46.9408 11.688 43.7354 14.9903 39.668 14.9903H34.7387V0.115356H39.668ZM26.1391 0.115356L32.2789 15H29.8191L28.8023 12.4434H21.9943L20.9774 15H18.4789L24.6574 0.115356H26.1391V0.115356ZM2.99384 0.115356L8.58163 6.53599L14.2082 0.115356H16.0094V15H13.7433V4.28926L8.58163 10.1192L3.45868 4.28926V15H1.15384V0.115356H2.99384ZM39.7455 2.51704H37.0048V12.5983H39.7455C42.4473 12.5983 44.636 10.3516 44.636 7.56252C44.636 4.80252 42.4473 2.51704 39.7455 2.51704ZM25.3934 4.32799L23.0499 10.0804H27.6983L25.3934 4.32799Z" fill="#232536"/>
</svg>
