<svg xmlns="http://www.w3.org/2000/svg" width="86" height="17" fill="none" xmlns:v="https://vecta.io/nano"><g clip-path="url(#A)" fill="#232536"><path d="M3.765 11.211c0 .977.215 1.728.495 2.182.368.595.916.847 1.475.847.721 0 1.38-.179 2.651-1.937l3.025-4.626 1.367-2.101c.95-1.459 2.049-3.08 3.309-4.18C17.116.498 18.226 0 19.343 0c1.875 0 3.662 1.087 5.029 3.125 1.496 2.232 2.222 5.044 2.222 7.946 0 1.725-.34 2.992-.919 3.994-.559.968-1.648 1.936-3.481 1.936v-2.761c1.569 0 1.961-1.442 1.961-3.092 0-2.351-.548-4.961-1.756-6.826-.857-1.323-1.968-2.131-3.19-2.131-1.322 0-2.385.997-3.581 2.774-.636.944-1.288 2.095-2.02 3.394l-.806 1.429-2.84 4.606C8.542 16.284 7.33 17 5.734 17c-1.893 0-3.09-.82-3.832-2.055C1.297 13.938 1 12.617 1 11.112l2.765.099z"/><path d="M3.18 3.32C4.447 1.366 6.276 0 8.374 0c1.215 0 2.423.36 3.684 1.389 1.38 1.126 2.85 2.98 4.684 6.035l.658 1.097 3.02 4.648c.68.824 1.156 1.07 1.775 1.07 1.569 0 1.961-1.442 1.961-3.092l2.439-.077c0 1.725-.34 2.992-.919 3.994-.559.968-1.648 1.936-3.481 1.936-1.139 0-2.149-.247-3.265-1.3-.858-.808-1.861-2.244-2.633-3.534l-2.295-3.834c-1.152-1.924-2.208-3.359-2.82-4.009-.658-.699-1.503-1.542-2.853-1.542-1.092 0-2.02.766-2.796 1.939L3.18 3.32z"/><path d="M8.33 2.78c-1.092 0-2.02.766-2.796 1.939-1.097 1.656-1.769 4.124-1.769 6.493 0 .977.215 1.728.495 2.182l-2.357 1.552C1.297 13.938 1 12.617 1 11.112c0-2.737.751-5.59 2.18-7.792C4.447 1.366 6.276 0 8.374 0L8.33 2.78zM31.969.538h3.198l5.437 9.837L46.042.538h3.128v16.163h-2.609V4.313l-4.769 8.578h-2.448l-4.768-8.578v12.388h-2.609V.538zm25.376 6.027c-1.871 0-2.998 1.408-3.267 3.152h6.35c-.131-1.796-1.167-3.152-3.082-3.152zm-5.854 4.145c0-3.669 2.371-6.339 5.899-6.339 3.47 0 5.542 2.636 5.542 6.535v.716h-8.855c.314 1.897 1.573 3.175 3.602 3.175 1.619 0 2.631-.494 3.59-1.397l1.386 1.697c-1.306 1.201-2.967 1.893-5.069 1.893-3.819 0-6.096-2.785-6.096-6.28h0zm14.605-3.914h-2.401V4.659h2.401V1.127h2.517V4.66h3.648v2.136h-3.648v5.414c0 1.849.591 2.505 2.044 2.505.663 0 1.043-.057 1.605-.15v2.113a7.48 7.48 0 0 1-2.09.288c-2.717 0-4.076-1.485-4.076-4.456V6.796zM82.86 8.873c-.506-1.276-1.633-2.216-3.29-2.216-2.154 0-3.533 1.528-3.533 4.018 0 2.427 1.269 4.029 3.429 4.029 1.698 0 2.91-.988 3.394-2.217V8.873zm2.517 7.828h-2.471v-1.686c-.691.992-1.948 1.974-3.983 1.974-3.274 0-5.461-2.74-5.461-6.315 0-3.608 2.24-6.304 5.6-6.304 1.661 0 2.964.664 3.844 1.836V4.659h2.471V16.7z"/></g><defs><clipPath id="A"><path fill="#fff" transform="translate(1)" d="M0 0h84.377v17H0z"/></clipPath></defs></svg>