<svg xmlns="http://www.w3.org/2000/svg" width="112" height="22" fill="none" xmlns:v="https://vecta.io/nano"><g clip-path="url(#A)" fill="#232536"><path d="M68.204 4.83v13.715h3.87V4.83h-3.87zm-30.452-.023v13.727h3.905V7.875l3.045.012c1 0 1.697.244 2.173.755.616.651.86 1.709.86 3.626v6.265h3.789v-7.578c0-5.416-3.452-6.149-6.823-6.149H37.75zm36.694.023v13.715h6.276c3.347 0 4.44-.558 5.614-1.802.837-.872 1.371-2.801 1.371-4.905 0-1.929-.453-3.65-1.255-4.719-1.418-1.918-3.487-2.29-6.579-2.29h-5.428zm3.836 2.975h1.662c2.418 0 3.975 1.081 3.975 3.894s-1.557 3.905-3.975 3.905h-1.662V7.805zM62.625 4.83l-3.231 10.867L56.302 4.83h-4.184l4.417 13.715h5.579L66.577 4.83h-3.952zm26.896 13.715h3.87V4.83h-3.87v13.715zM100.377 4.83l-5.405 13.704h3.812l.86-2.429h6.393l.814 2.418H111L105.549 4.83h-5.172zm2.51 2.499l2.348 6.416h-4.765l2.417-6.416zm-90.113-.221V5.225l.558-.023c5.161-.163 8.543 4.44 8.543 4.44s-3.65 5.068-7.567 5.068a4.8 4.8 0 0 1-1.523-.244V8.747c2.011.244 2.418 1.127 3.615 3.138l2.685-2.255s-1.964-2.569-5.265-2.569a7.96 7.96 0 0 0-1.046.046m0-6.23V3.69l.558-.035c7.171-.244 11.855 5.881 11.855 5.881s-5.37 6.532-10.96 6.532c-.488 0-.965-.046-1.441-.128v1.743c.395.046.802.081 1.197.081 5.207 0 8.973-2.662 12.623-5.8.604.488 3.08 1.662 3.592 2.173-3.464 2.906-11.542 5.242-16.121 5.242-.442 0-.86-.023-1.279-.07v2.452H32.58V.878H12.774zm0 13.587v1.488c-4.812-.86-6.149-5.87-6.149-5.87s2.313-2.557 6.149-2.975v1.627h-.012c-2.011-.244-3.592 1.639-3.592 1.639s.895 3.173 3.603 4.091m-8.542-4.59s2.848-4.208 8.555-4.649V3.691C6.463 4.202 1 9.549 1 9.549s3.092 8.95 11.774 9.763v-1.627c-6.369-.79-8.543-7.811-8.543-7.811h0z"/></g><defs><clipPath id="A"><path fill="#fff" transform="translate(1 1)" d="M0 0h110v20.561H0z"/></clipPath></defs></svg>