<svg xmlns="http://www.w3.org/2000/svg" width="68" height="34" fill="none" xmlns:v="https://vecta.io/nano"><g clip-path="url(#A)"><g fill="#232536"><path d="M1 24.359v-7.926h4.423c2.487 0 4.671.133 4.991.304.529.283.568.664.568 5.557 0 6.354.093 6.176-3.219 6.176-2.608 0-2.653.04-2.653 2.373v1.444H3.055 1v-7.926zm5.578-1.877c0-3.206-.08-3.963-.436-4.099-.748-.287-1.032.821-1.032 4.024 0 3.471.122 4.007.912 4.007.518 0 .556-.27.556-3.932zm6.175 9.236c-.186-.348-.304-3.415-.304-7.927v-7.359h2.202 2.202v6.403c0 4.907.092 6.529.396 6.944.91 1.245 1.072.248 1.072-6.611v-6.735h2.202 2.202v7.574l-.352 7.926c-.243.243-1.74.352-4.834.352-4.13 0-4.505-.044-4.785-.568zm11.439-7.006l.352-7.927c.501-.501 14.354-.501 14.855 0 .256.256.352 2.427.352 7.927v7.574H37.55h-2.202v-6.92c0-6.433-.036-6.914-.514-6.822-.469.09-.521.693-.593 6.92l-.079 6.822h-2.196-2.196V25.57c0-5.215-.087-6.788-.389-7.039-.927-.769-1.079.228-1.079 7.062v6.693h-2.055-2.055v-7.574zm17.321-.048c0-7.236.029-7.638.568-7.926.821-.439 8.615-.398 9.061.048.256.256.352 2.427.352 7.927v7.574h-2.188-2.188l-.087-1.982c-.067-1.527-.188-1.982-.527-1.982s-.46.454-.527 1.982l-.087 1.982h-2.188-2.188v-7.623zm5.431-2.237c0-3.175-.072-3.792-.44-3.792-.362 0-.455.622-.524 3.506-.088 3.717.008 4.397.597 4.201.268-.089.367-1.143.367-3.914zm13.496 2.978c-.186-.224-.51-1.002-.575-1.818-.113-1.433.182-1.328-1.574-3.091-1.416-1.422-2.336-2.355-2.973-4.228-1.002-2.949-2.314-3.721-3.919-3.721-1.487 0-3.855-.477-5.122-1.032-.6-.263-1.765-1.085-2.589-1.828l-1.497-1.35-.688.541c-.913.718-2.199.682-4.136-.115-1.803-.743-2.143-.697-2.143-.175 0 .616-.478.643-1.16.196-1.436-.941-.223-2.472 2.19-2.352 1.437.071 1.505.083 1.505-.504 0-.694-.428-.94-1.636-.94-.518 0-.97-.172-1.422-.604-.277-.167-.524-.297-.682-.677.132-.482.267-.789.524-1.021.25-.487.546-1.013 1.073-1.346.303-.192.599-.788.83-1.023.205-.208.196-.273.548.017.362.299.503.3.852.01s.467-.283.718.061a3.02 3.02 0 0 0 1.581 1.027c2.287.538 4.309 1.745 7.992 4.784 4.692 3.871 5.16 3.704 7.388 3.927 2.615.262 3.599-.71 5.474-4.846 1.232-2.716 2.029-3.758 3.518-4.698 1.265-.798 2.368-.828 2.456.074.084.865.075 1.279-1.789 2.403-2.073 1.251-2.687 1.889-3.99 4.589-.671 1.39-1.486 2.632-2.079 3.167l-.975.88.648 1.308c.479.969.679 1.872.77 3.479.169 2.982-.032 2.702.975 3.657.468.444.652.089.842.984.181.849.228 1.272.622 2.34.247.668.021.282-.073 1.227-.071.718.098.45-.216 1.199-.137.327-1.084-.279-1.27-.503zm-5.794 7.28v-1.963h.87c.175 0 .308.018.399.054s.164.097.218.186a.56.56 0 0 1 .082.296c0 .139-.045.257-.135.352s-.229.156-.418.182a.68.68 0 0 1 .157.098 1.35 1.35 0 0 1 .216.261l.341.534h-.327l-.26-.408-.187-.27c-.049-.062-.093-.106-.133-.131s-.078-.042-.118-.052c-.029-.006-.078-.009-.145-.009h-.301v.871h-.26zm.26-1.096h.558a.85.85 0 0 0 .278-.036.3.3 0 0 0 .153-.118c.035-.054.052-.113.052-.177a.29.29 0 0 0-.102-.229c-.067-.06-.173-.09-.319-.09h-.621v.649z"/></g><path d="M57.151 31.656a1.8 1.8 0 0 1-.137.69c-.09.219-.223.417-.391.585a1.8 1.8 0 0 1-1.274.528 1.8 1.8 0 0 1-1.274-.528c-.167-.167-.3-.366-.391-.585s-.137-.453-.137-.69.047-.471.137-.69.223-.417.391-.585a1.8 1.8 0 0 1 1.274-.528 1.8 1.8 0 0 1 1.274.528c.167.167.3.366.391.585a1.8 1.8 0 0 1 .137.69h0z" stroke="#232536" stroke-width=".38"/></g><defs><clipPath id="A"><path fill="#fff" transform="translate(1)" d="M0 0h66v33.648H0z"/></clipPath></defs></svg>