<svg xmlns="http://www.w3.org/2000/svg" width="89" height="25" fill="none" xmlns:v="https://vecta.io/nano"><g clip-path="url(#A)"><g clip-path="url(#B)" fill="#232536"><path d="M19.792 4.535c-.089-.008-1.84-.034-1.84-.034l-1.609-1.566c-.054-.054-.127-.082-.203-.093V24.59l6.561-1.631-2.694-18.223c-.017-.124-.126-.193-.216-.201z"/><path fill-rule="evenodd" d="M19.791 4.534c.09.007.198.076.216.201l2.694 18.224-6.562 1.631L1 21.972 2.873 7.511c.09-.651.112-.672.802-.889l1.223-.379 1.122-.348c.146-1.046.661-2.397 1.338-3.472C8.321.896 9.507.035 10.698.001c.617-.018 1.132.191 1.534.621a2.88 2.88 0 0 1 .083.096l.021-.002.171-.01h.003c.922.001 1.686.527 2.207 1.522.162.308.275.615.352.865l.315-.098.42-.13c.11-.033.392-.076.537.068L17.951 4.5l1.84.034zm-6.231-.973l.752-.233c-.188-.61-.632-1.633-1.536-1.804.281.725.353 1.564.362 2.167l.422-.131zM9.818 4.72l2.528-.783c.008-.658-.063-1.632-.393-2.32-.351.145-.647.398-.858.625-.569.611-1.032 1.542-1.276 2.477zM11.439.981c-.201-.132-.437-.194-.716-.188C8.884.847 7.28 3.719 6.87 5.632l1.177-.364.899-.278c.231-1.216.811-2.476 1.568-3.288.292-.313.603-.553.925-.72zm.302 9.778l.762-2.851s-.657-.327-1.941-.245c-3.333.21-4.843 2.541-4.698 4.84.097 1.535 1.001 2.177 1.794 2.74.618.439 1.169.829 1.215 1.558.025.402-.224.97-.923 1.014-1.07.068-2.406-.941-2.406-.941l-.511 2.174s1.328 1.422 3.739 1.27c2.009-.127 3.404-1.734 3.256-4.084-.114-1.806-1.386-2.622-2.391-3.267-.657-.421-1.2-.769-1.232-1.273-.015-.234.001-1.166 1.478-1.259a4.33 4.33 0 0 1 1.858.323z"/><path d="M31.341 13.879c-.755-.409-1.142-.755-1.142-1.229 0-.604.539-.991 1.38-.991a4.93 4.93 0 0 1 1.853.409l.69-2.112s-.634-.496-2.5-.496c-2.597 0-4.397 1.487-4.397 3.578 0 1.186.84 2.091 1.962 2.737.905.517 1.229.884 1.229 1.422 0 .56-.453 1.013-1.293 1.013-1.253 0-2.435-.647-2.435-.647l-.733 2.113s1.093.733 2.931.733c2.673 0 4.591-1.315 4.591-3.686-.001-1.271-.97-2.176-2.135-2.844zm10.648-4.441c-1.315 0-2.349.625-3.147 1.573l-.043-.022 1.142-5.97h-2.975l-2.888 15.195h2.974l.991-5.194c.388-1.962 1.401-3.168 2.349-3.168.668 0 .927.453.927 1.1 0 .409-.043.905-.129 1.315l-1.12 5.948h2.975l1.163-6.143a11.09 11.09 0 0 0 .216-1.94c-.001-1.681-.885-2.694-2.437-2.694zm9.16 0c-3.578 0-5.948 3.233-5.948 6.832 0 2.306 1.422 4.159 4.095 4.159 3.513 0 5.884-3.146 5.884-6.832 0-2.133-1.25-4.159-4.031-4.159zm-1.466 8.708c-1.013 0-1.444-.862-1.444-1.94 0-1.702.884-4.483 2.5-4.483 1.056 0 1.401.905 1.401 1.789 0 1.832-.883 4.634-2.457 4.634zm13.105-8.708c-2.008 0-3.147 1.767-3.147 1.767h-.043l.172-1.595h-2.629l-.603 3.944-2.069 10.884h2.975l.819-4.397h.065s.61.388 1.746.388c3.491 0 5.776-3.577 5.776-7.199 0-2.004-.884-3.793-3.061-3.793zm-2.845 8.75c-.772 0-1.229-.431-1.229-.431l.496-2.78c.345-1.853 1.315-3.082 2.35-3.082.905 0 1.185.84 1.185 1.638 0 1.918-1.142 4.655-2.802 4.655zM70.094 5.171c-.948 0-1.703.754-1.703 1.724 0 .884.56 1.487 1.401 1.487h.043c.927 0 1.724-.625 1.746-1.724 0-.862-.582-1.487-1.487-1.487zm-4.159 15.044h2.974l2.027-10.539H67.94l-2.004 10.539zM78.5 9.654h-2.069l.107-.496c.173-1.013.776-1.918 1.768-1.918a3.1 3.1 0 0 1 .948.151l.582-2.328s-.517-.258-1.617-.258c-1.056 0-2.112.302-2.91.991-1.013.862-1.487 2.112-1.724 3.362l-.086.496h-1.38l-.431 2.242h1.38l-1.573 8.319h2.975l1.573-8.319h2.048l.409-2.242zm7.156.022l-2.694 7.242h-.043l-.733-7.242H79.06l1.79 9.677a.63.63 0 0 1-.065.496c-.345.668-.927 1.315-1.617 1.789-.56.409-1.185.668-1.681.84L78.306 25c.604-.129 1.853-.625 2.909-1.617 1.358-1.271 2.608-3.233 3.901-5.906l3.643-7.802h-3.103v.001z"/></g></g><defs><clipPath id="A"><path fill="#fff" d="M0 0h89v25H0z"/></clipPath><clipPath id="B"><path fill="#fff" transform="translate(1)" d="M0 0h88.115v25H0z"/></clipPath></defs></svg>