<svg xmlns="http://www.w3.org/2000/svg" width="89" height="19" fill="none" xmlns:v="https://vecta.io/nano"><g clip-path="url(#A)"><g clip-path="url(#B)"><path d="M81.787.445c-2.055.004-3.63.54-4.678 1.595-1.216 1.225-1.391 2.798-1.386 3.626.008 3.742 2.424 4.342 4.983 4.978l1.703.416c1.722.437 2.77.789 2.777 1.997-.002 1.731-1.694 2.096-3.112 2.096h-.083-.06c-2.705 0-3.145-1.651-3.167-2.636l-.003-.073h-3.266v.099c.002 1.697.665 5.647 6.724 5.647h.032c1.036-.003 6.21-.282 6.204-5.553-.005-3.069-2.095-4.021-4.137-4.547l-3.814-1c-.769-.194-1.59-.499-1.598-1.681.007-1.421 1.364-1.927 2.644-1.927 1.919.006 2.964.826 3.11 2.439l.005.068 3.279-.002-.002-.075c-.04-2.522-1.675-5.468-6.157-5.468h0zM54.265.501C52.5.501 51.073 1.888 51.072 3.584v12.322c-.002.916.763 1.9 1.704 1.905.173-.019.334 0 .334 0h8.848v-3.146h-7.68V3.587l.128-.005 1.145 5.839 2.873-.69-.893-5.203C57.418 1.784 56.047.505 54.265.502V.501zM6.702.525c-2.037 0-3.6.532-4.647 1.582C.828 3.336.649 4.917.652 5.75.665 9.489 3.1 10.084 5.677 10.716l1.674.429c1.666.408 2.758.768 2.759 2.004.002.537-.165.978-.493 1.309-.507.51-1.431.782-2.674.784-2.882-.011-3.226-1.848-3.24-2.637l-.002-.074-3.28-.005v.074c.013 1.704.698 5.666 6.761 5.672 1.039-.005 6.22-.3 6.215-5.546-.012-3.074-1.999-4.015-4.145-4.574l-3.809-1.01c-.635-.155-1.596-.389-1.605-1.659.005-1.414 1.349-1.919 2.607-1.919h.032c2.852.002 3.054 1.831 3.128 2.494h.008 3.265c-.007-.558-.237-5.535-6.144-5.535h-.034 0zM13.09.9l-.008 3.158h4.715v13.752h3.427V4.059h4.691L25.901.9H13.09h0zm15.124 0l-5.569 16.911h3.59l1.09-3.465h5.643l.992 3.465h3.705L32.114.9h-.016-3.883 0zm10.041 0v16.911h3.43v-6.037l3.67-.012c1.436-.004 2.604-.451 3.472-1.326 1.161-1.17 1.566-2.934 1.56-4.089C50.375 3.007 48.486.9 45.453.9h-7.197 0zm24.348 0v16.911h12.014v-3.157h-8.658v-4.171h7.604V7.369l-7.604.008V4.004h8.268L74.223.9H62.603h.001zM41.686 3.969h2.492.039c1.963 0 2.764.645 2.767 2.229.004.43.017 1.327-.577 1.927-.391.396-.987.597-1.778.597l-2.943.004V3.969h0zM30.134 4.983l1.874 6.343h-3.783l1.909-6.343h0z" fill="#232536"/></g></g><defs><clipPath id="A"><path fill="#fff" d="M0 0h89v19H0z"/></clipPath><clipPath id="B"><path fill="#fff" d="M0 0h89v18.795H0z"/></clipPath></defs></svg>